<?xml version="1.0" encoding="UTF-8"?>
<svg id="Layer_2" data-name="Layer 2" xmlns="http://www.w3.org/2000/svg" viewBox="0 0 219.72 148.33">
  <defs>
    <style>
      .cls-1 {
        fill: #f04c23;
        stroke-width: 0px;
      }
    </style>
  </defs>
  <g id="Layer_1-2" data-name="Layer 1">
    <g>
      <path class="cls-1" d="M78.13,62.28c8.67,9.11,19.13,14.06,31.73,14.05,12.6,0,23.05-4.96,31.91-14.26,2.83,2.54,5.81,4.86,8.38,7.58,13.94,14.75,20.01,32.47,19.23,52.6-.23,5.98-1.65,11.69-5.63,16.46-2.75,3.28-6.29,5.35-10.28,6.72-6.14,2.11-12.53,2.72-18.96,2.81-9.07.13-18.14.09-27.21.03-6.84-.04-13.69-.1-20.53-.38-6.94-.28-13.81-1.09-20.41-3.48-9.36-3.39-14.83-10-15.78-19.89-1.47-15.34,1.95-29.66,9.79-42.92,4.41-7.45,10.11-13.77,17.12-18.89.17-.12.35-.24.66-.44Z"/>
      <path class="cls-1" d="M143.56,33.82c-.21,19.13-15.37,34.03-34.65,33.65-18.54-.37-33.14-15.93-32.84-34.33C76.38,14.49,91.66-.21,110.74,0c18,.2,33.02,15.67,32.82,33.82Z"/>
      <path class="cls-1" d="M176.88,126.32c1.64-21.96-4.08-41.56-18.1-58.79,14.88,6.42,27.92,3.95,39.51-7.35.82.64,1.74,1.3,2.61,2.03,10.71,9.05,16.54,20.71,18.35,34.49.57,4.3.69,8.6.03,12.92-1.23,8.1-5.92,13.45-13.95,15.14-4.29.9-8.7,1.35-13.08,1.58-4.86.26-9.75.05-14.63.05-.21,0-.42-.04-.73-.07Z"/>
      <path class="cls-1" d="M60.91,67.49c-14.05,17.28-19.81,36.85-18.11,58.84-2.83,0-5.68.05-8.53,0-6.33-.13-12.68-.31-18.84-1.98C4.95,121.5.12,115.76,0,104.95c-.19-17.74,6.14-32.65,20.21-43.92.36-.29.75-.55,1.14-.84,11.48,11.23,24.55,13.8,39.55,7.3Z"/>
      <path class="cls-1" d="M173.9,12.21c13.91-.15,25.72,11.53,25.85,25.56.14,14.53-11.33,26.28-25.79,26.42-13.95.14-26.02-11.41-26.16-25.02-.15-15.31,10.97-26.8,26.1-26.96Z"/>
      <path class="cls-1" d="M45.79,12.23c14.76.02,26.08,11.5,26.07,26.46,0,13.77-11.92,25.54-25.8,25.5-14.73-.04-26.19-11.65-26.15-26.45.05-13.95,11.79-25.52,25.88-25.51Z"/>
    </g>
  </g>
</svg>