<?xml version="1.0" encoding="UTF-8"?>
<svg id="Layer_2" data-name="Layer 2" xmlns="http://www.w3.org/2000/svg" viewBox="0 0 32 24.21">
  <defs>
    <style>
      .cls-1 {
        fill: #fff;
        stroke-width: 0px;
      }
    </style>
  </defs>
  <g id="Layer_2-2" data-name="Layer 2">
    <path class="cls-1" d="M22.11,21.49c.92-.38,1.83-.77,2.72-1.32-.24-.19-.43-.35-.64-.49-.05-.03-.15,0-.21.02-1.51.68-3.08,1.18-4.71,1.46-1.35.23-2.7.33-4.07.26-2.49-.12-4.86-.7-7.13-1.71-.08-.04-.22-.02-.3.03-.19.12-.35.27-.56.44.87.55,1.77.94,2.72,1.32-.06.13-.11.23-.17.33-.47.75-.94,1.49-1.4,2.24-.09.14-.18.17-.34.12-2.78-.88-5.36-2.17-7.72-3.89-.08-.06-.17-.17-.17-.26C.06,18.98,0,17.92,0,16.86c.02-2.71.49-5.35,1.37-7.92.82-2.4,1.97-4.64,3.38-6.74.07-.11.19-.21.31-.26C7.06,1.02,9.15.38,11.32.01c.07-.01.19.06.23.13.23.42.45.86.65,1.29.09.19.17.26.4.23,1.55-.22,3.11-.3,4.68-.19.75.05,1.49.15,2.24.21.08,0,.2-.09.24-.16.23-.44.44-.88.65-1.33.07-.15.15-.21.34-.17,2.14.38,4.21,1.02,6.19,1.91.12.05.23.15.31.26,2.01,2.98,3.48,6.2,4.21,9.73.24,1.17.39,2.37.48,3.56.09,1.13.06,2.28.06,3.42,0,.39-.05.78-.1,1.16,0,.08-.07.18-.14.23-2.37,1.73-4.96,3.03-7.77,3.91-.14.04-.22.03-.3-.1-.51-.83-1.03-1.66-1.54-2.49-.02-.03-.02-.06-.04-.12h0ZM10.66,16.55c.48.01.93-.12,1.34-.35,1.71-.99,2.13-3.49.84-5.06-1.05-1.28-2.75-1.43-3.99-.35-1.13.98-1.43,2.84-.67,4.2.55.96,1.35,1.52,2.48,1.57h0ZM18.42,13.3c-.02.61.19,1.32.54,1.89,1.04,1.64,3.12,1.83,4.44.41,1.08-1.17,1.14-3.11.14-4.42-.96-1.25-2.69-1.48-3.9-.49-.82.67-1.2,1.56-1.21,2.61Z"/>
  </g>
</svg>