<?xml version="1.0" encoding="UTF-8"?>
<svg id="Layer_2" data-name="Layer 2" xmlns="http://www.w3.org/2000/svg" viewBox="0 0 80 37.24">
  <defs>
    <style>
      .cls-1 {
        fill: #fff;
        stroke-width: 0px;
      }
    </style>
  </defs>
  <g id="Layer_1-2" data-name="Layer 1">
    <g>
      <path class="cls-1" d="M72.24,26.83c-.46-.27-.99-.28-1.43-.02-.22.12-.39.3-.51.51,0-.07,0-.14,0-.22,0-.38-.19-.75-.5-1.01-.33-.27-.74-.38-1.13-.31-.43.08-.76.32-.96.66,0-.09,0-.19,0-.28,0-.59-.34-1.06-.9-1.25-.45-.15-.92-.1-1.28.16-.16.11-.29.26-.39.43v-2.49c0-.14-.01-.27-.03-.39-.09-.59-.5-1.04-1.04-1.14-.65-.13-1.26.15-1.53.7-.12.23-.18.53-.18.83,0,2.3,0,4.6,0,6.9v.59c-.53-.53-1.06-1.06-1.59-1.58-.57-.56-1.55-.55-2.13.02-.61.61-.62,1.47-.01,2.11.05.05.09.1.14.14l4.59,4.56c.52.51,1.13.89,1.82,1.12.54.18,1.12.29,1.88.34.27.02.53.03.78.03.75,0,1.44-.08,2.09-.24,1.32-.32,2.19-1.03,2.57-2.11.21-.6.33-1.17.34-1.68.04-1.43.05-2.89.05-4.3v-.88c0-.52-.22-.95-.64-1.19Z"/>
      <path class="cls-1" d="M25.89,8.93c-.8,0-1.46.29-1.98.88-.52.59-.78,1.33-.78,2.22s.26,1.65.77,2.23c.51.58,1.18.87,1.99.87s1.46-.29,1.98-.88c.52-.59.78-1.33.78-2.22s-.26-1.62-.79-2.21c-.53-.59-1.18-.89-1.97-.89Z"/>
      <path class="cls-1" d="M50.36,9.34c-.06-.24-.13-.54-.22-.91-.06.26-.12.51-.18.74-.06.24-.12.46-.18.68l-1.06,3.48h2.86l-1.07-3.48c-.03-.11-.08-.28-.14-.51Z"/>
      <path class="cls-1" d="M12.71,9.08h-.48v5.83h.48c1.13,0,1.95-.23,2.47-.7.52-.46.78-1.2.78-2.21s-.26-1.75-.78-2.22c-.52-.47-1.34-.71-2.47-.71Z"/>
      <path class="cls-1" d="M64.04,19.94c.2.04.41.08.6.13,1.29.35,2.28,1.53,2.42,2.87.05.51.02.91-.1,1.27-.13-.08-.24-.16-.37-.22-.13-.06-.27-.08-.41-.12,0-.32.04-.65,0-.97-.17-1.16-1.26-2.13-2.57-2.08-1.19.05-2.21.96-2.39,2.16-.06.41,0,.8.11,1.19.05.16.08.34.08.51.01.37,0,.73,0,1.14-.35-.29-.57-.61-.74-.97-1-2.04.2-4.44,2.44-4.86.08-.02.17-.03.25-.05.23,0,.46,0,.69,0Z"/>
      <path class="cls-1" d="M73.23,0H6.77C3.03,0,0,3.03,0,6.77v10.51c0,3.74,3.03,6.77,6.77,6.77h52.74c-.36-2.25,1.11-4.49,3.51-4.94.11-.02.21-.04.32-.06h.87c.26.06.52.1.77.17,1.64.45,2.91,1.95,3.09,3.66.05.46.04.84-.02,1.18h5.17c3.74,0,6.77-3.03,6.77-6.77V6.77c0-3.74-3.03-6.77-6.77-6.77ZM18.37,14.5c-.35.73-.85,1.33-1.52,1.79-.51.36-1.09.61-1.74.76-.65.15-1.67.23-3.04.23h-2.68V6.73h2.2c1.64,0,2.8.08,3.48.23.68.15,1.28.41,1.79.77.67.47,1.18,1.06,1.52,1.79s.52,1.56.52,2.49-.17,1.76-.52,2.49ZM31.11,14.16c-.28.66-.68,1.26-1.22,1.78-.54.52-1.15.92-1.85,1.2-.69.28-1.41.42-2.16.42s-1.48-.14-2.17-.42c-.69-.28-1.3-.68-1.82-1.2-.54-.52-.96-1.12-1.24-1.79-.28-.67-.42-1.38-.42-2.13s.14-1.46.42-2.13c.28-.67.69-1.26,1.24-1.78.52-.52,1.13-.92,1.82-1.2.69-.28,1.41-.42,2.17-.42s1.47.14,2.17.42c.69.28,1.31.68,1.84,1.2.53.52.93,1.11,1.21,1.78.28.67.42,1.38.42,2.13s-.14,1.47-.42,2.13ZM43.65,17.28h-2.76l-3.99-5.45c-.08-.11-.21-.33-.39-.67-.18-.33-.37-.73-.57-1.18.06.44.1.83.13,1.18.03.34.04.64.04.91v5.21h-2.78V6.73h2.78l3.99,5.43c.08.11.2.33.38.67.18.33.37.73.58,1.19-.06-.44-.1-.83-.13-1.17-.03-.34-.04-.64-.04-.91v-5.21h2.76v10.56ZM52.71,17.28l-.53-1.89h-4.09l-.55,1.89h-2.86l3.64-10.56h3.61l3.65,10.56h-2.86ZM62.74,9.22h-2.36v8.06h-2.88v-8.06h-2.37v-2.49h7.61v2.49ZM70.62,9.04h-3.66v1.83h3.45v2.26h-3.45v1.78h3.66v2.36h-6.47V6.73h6.47v2.31Z"/>
    </g>
  </g>
</svg>