<?xml version="1.0" encoding="UTF-8"?>
<svg id="Layer_2" data-name="Layer 2" xmlns="http://www.w3.org/2000/svg" viewBox="0 0 188.41 181.31">
  <defs>
    <style>
      .cls-1 {
        fill: #f04c23;
        stroke-width: 0px;
      }
    </style>
  </defs>
  <g id="Layer_1-2" data-name="Layer 1">
    <path class="cls-1" d="M146.2,177.8l-46.08-22.78c-2.43-1.2-5.29-1.13-7.65.19l-44.89,25.04c-5.95,3.32-13.13-1.63-12.14-8.37l7.43-50.86c.39-2.68-.56-5.38-2.54-7.22L2.64,78.85c-5-4.63-2.51-12.99,4.21-14.14l50.67-8.65c2.67-.46,4.94-2.19,6.08-4.65L85.19,4.77c2.86-6.18,11.58-6.4,14.74-.37l23.88,45.51c1.26,2.4,3.61,4.02,6.3,4.34l51.03,6.13c6.77.81,9.67,9.03,4.9,13.91l-35.91,36.78c-1.89,1.94-2.71,4.68-2.18,7.34l9.94,50.43c1.32,6.69-5.6,11.98-11.71,8.96Z"/>
  </g>
</svg>