<?xml version="1.0" encoding="UTF-8"?>
<svg id="Layer_2" data-name="Layer 2" xmlns="http://www.w3.org/2000/svg" viewBox="0 0 199.27 253.91">
  <defs>
    <style>
      .cls-1 {
        fill: #fff;
      }

      .cls-1, .cls-2 {
        stroke-width: 0px;
      }

      .cls-2 {
        fill: #f04c23;
      }
    </style>
  </defs>
  <g id="Layer_1-2" data-name="Layer 1">
    <g>
      <rect class="cls-1" x="74.82" y="33.05" width="72.3" height="113.38" transform="translate(59.73 -43.46) rotate(30)"/>
      <path class="cls-2" d="M193.76,56.48L98.5,1.48c-5.26-3.04-11.99-1.23-15.03,4.03s-1.23,11.99,4.03,15.03l14.29,8.25-41.32,71.57-.53.92L5.15,196.16c-10.61,18.38-4.29,41.98,14.09,52.59,18.38,10.61,41.98,4.29,52.59-14.09l46.03-79.73.65-1.13,49.96-86.53,14.29,8.25c5.26,3.04,11.99,1.23,15.03-4.03s1.23-11.99-4.03-15.03ZM114.27,147.17c-12.5-7.96-22.1-16.34-29.56-24.14-6.64-6.94-12.19-14.02-17.21-20.87l40.35-69.89,54.56,31.5-48.15,83.39Z"/>
      <circle class="cls-1" cx="44.73" cy="161.83" r="6.22"/>
      <circle class="cls-1" cx="66.29" cy="200.93" r="6.22"/>
      <circle class="cls-1" cx="32.33" cy="200.2" r="14.67"/>
      <circle class="cls-1" cx="85.53" cy="161.27" r="14.67"/>
      <path class="cls-1" d="M50.65,139.46c7.01,4.05,15.98,1.65,20.04-5.37s1.65-15.98-5.37-20.04c-1.06-.61-2.18-1.06-3.31-1.39l-14.21,24.62c.85.82,1.79,1.56,2.85,2.17Z"/>
      <path class="cls-1" d="M73.47,218.42c-7.01-4.05-15.98-1.65-20.04,5.37-3.46,5.99-2.2,13.41,2.62,17.97,4.18-2.86,7.8-6.68,10.51-11.37l6.91-11.97Z"/>
    </g>
  </g>
</svg>