<?xml version="1.0" encoding="UTF-8"?>
<svg id="Layer_2" data-name="Layer 2" xmlns="http://www.w3.org/2000/svg" viewBox="0 0 1012.07 1012.07">
  <defs>
    <style>
      .cls-1 {
        fill: #282827;
        stroke-width: 0px;
      }
    </style>
  </defs>
  <g id="Layer_1-2" data-name="Layer 1">
    <path class="cls-1" d="M983.37,355.63L656.45,28.71c-38.28-38.28-100.55-38.27-138.83,0-38.27,38.27-38.28,100.55,0,138.83l38.69,38.69L51.6,710.95c-68.8,68.8-68.8,180.73,0,249.53s180.73,68.8,249.53,0l504.72-504.72,38.69,38.69c38.28,38.28,100.55,38.28,138.83,0,38.28-38.28,38.27-100.55,0-138.83ZM175.01,890.84c16.05,16.05,42.17,16.05,58.22,0,16.05-16.05,16.05-42.17,0-58.22l-100.74-100.74,32.15-32.15,59.33,59.33c16.05,16.05,42.17,16.05,58.22,0,16.05-16.05,16.05-42.17,0-58.22l-59.33-59.33,32.15-32.15,59.33,59.33c16.05,16.05,42.17,16.05,58.22,0,16.05-16.05,16.05-42.17,0-58.22l-59.33-59.33,32.15-32.15,100.74,100.74c16.05,16.05,42.17,16.05,58.22,0,16.05-16.05,16.05-42.17,0-58.22l-100.74-100.74,32.15-32.15,59.33,59.33c16.05,16.05,42.17,16.05,58.22,0,16.05-16.05,16.05-42.17,0-58.22l-59.33-59.33,32.15-32.15,59.33,59.33c16.05,16.05,42.17,16.05,58.22,0,16.05-16.05,16.05-42.17,0-58.22l-59.33-59.33,22.88-22.88,147.71,147.71-504.72,504.72c-40.72,40.72-106.98,40.72-147.71,0-30.72-30.72-38.26-75.99-22.62-113.85l95.12,95.12Z"/>
  </g>
</svg>