<?xml version="1.0" encoding="UTF-8"?>
<svg id="Layer_2" data-name="Layer 2" xmlns="http://www.w3.org/2000/svg" viewBox="0 0 215.49 211.14">
  <defs>
    <style>
      .cls-1 {
        fill: #ce4129;
      }

      .cls-1, .cls-2 {
        stroke-width: 0px;
      }

      .cls-2 {
        fill: #fff;
      }
    </style>
  </defs>
  <g id="Layer_1-2" data-name="Layer 1">
    <path class="cls-2" d="M155.14,78.1c-.04,4.41-1.53,7.09-3.79,9.47-16.13,17.04-32.2,34.13-48.38,51.12-6.13,6.43-11.23,6.45-17.64.5-6.82-6.34-13.76-12.56-20.52-18.96-5.39-5.11-5.86-10.7-1.56-15.34,4.26-4.6,9.96-4.4,15.43.58,3.2,2.91,6.55,5.69,9.47,8.86,2.55,2.77,4.17,3,6.95,0,13.12-14.16,26.47-28.11,39.79-42.07,4.74-4.97,9.25-5.89,14.26-3.25,4.1,2.16,5.94,5.61,6,9.1Z"/>
    <path class="cls-1" d="M213.06,120.13c-3.84-6.03-7.54-12.17-11.57-18.07-2.21-3.22-2.51-6.15-1.03-9.78,3.2-7.85,5.89-15.9,9.08-23.75,1.75-4.31.58-6.54-3.81-7.7-7.54-2-15.01-4.29-22.56-6.3-2.92-.78-4.44-2.2-4.84-5.39-1.1-8.9-2.62-17.74-3.81-26.63-.56-4.16-1.99-6.2-6.81-5.47-9.19,1.4-18.48,2.14-27.73,3.22-2.65.31-4.72-.36-6.77-2.21-5.91-5.36-12.13-10.39-18.04-15.75-3.17-2.87-5.75-3.21-8.95,0-5.16,5.19-10.73,9.97-15.89,15.16-2.51,2.52-4.92,3.3-8.45,2.34-8.97-2.44-18.11-4.29-27.07-6.78-4.61-1.28-6.88-.04-7.87,4.6-1.7,7.96-3.76,15.84-5.48,23.79-.79,3.62-2.5,5.75-6.31,6.69-7.09,1.75-14.03,4.12-21.1,5.96-4.57,1.19-6.44,3.22-4.85,8.21,1.87,5.84,2.25,12.24,4.63,17.81,4.8,11.23,2.1,19.6-6.25,28.27-9.38,9.74-11.3,8.21,1.37,19.31q13.52,11.85,13.54,29.82c0,.17,0,.33,0,.5,0,4.99.05,9.99-.01,14.98-.05,3.45,1.48,5.19,4.99,5.45,7.96.59,15.89,1.48,23.85,1.97,3.13.19,5.23,1.31,6.97,3.93,4.89,7.34,10.07,14.48,14.95,21.82,2.03,3.06,4.22,3.65,7.58,2.18,7-3.06,14.17-5.74,21.21-8.73,3.44-1.46,6.48-1.5,9.94.34,6.9,3.65,14.13,6.68,21.07,10.26,3.55,1.83,5.82,1.1,8-2.05,4.44-6.43,9.18-12.65,13.58-19.11,1.96-2.87,4.4-4.15,7.78-4.62,7.07-.97,14.06-2.45,21.13-3.45,4.22-.6,6.04-2.51,5.92-6.91-.2-7.15.2-14.31.06-21.47-.07-3.49,1.02-5.93,3.88-8.04,6.01-4.45,11.78-9.23,17.66-13.85,5.42-4.25,5.56-4.92,1.98-10.54ZM151.35,87.57c-16.13,17.04-32.2,34.13-48.38,51.12-6.13,6.43-11.23,6.45-17.64.5-6.82-6.34-13.76-12.56-20.52-18.96-5.39-5.11-5.86-10.7-1.56-15.34,4.26-4.6,9.96-4.4,15.43.58,3.2,2.91,6.55,5.69,9.47,8.86,2.55,2.77,4.17,3,6.95,0,13.12-14.16,26.47-28.11,39.79-42.07,4.74-4.97,9.25-5.89,14.26-3.26,4.1,2.16,5.94,5.61,6,9.1-.04,4.41-1.53,7.09-3.79,9.47Z"/>
  </g>
</svg>