<?xml version="1.0" encoding="UTF-8"?>
<svg id="Layer_2" data-name="Layer 2" xmlns="http://www.w3.org/2000/svg" viewBox="0 0 20 20">
  <defs>
    <style>
      .cls-1 {
        fill: #f04c23;
        stroke-width: 0px;
      }
    </style>
  </defs>
  <g id="Layer_1-2" data-name="Layer 1">
    <path class="cls-1" d="M2.16,2.16c-2.87,2.87-2.87,7.53,0,10.41,2.58,2.58,6.61,2.84,9.48.78l6.3,6.3c.47.47,1.24.47,1.71,0s.47-1.24,0-1.71l-6.3-6.3c2.06-2.87,1.8-6.9-.78-9.48-2.87-2.87-7.53-2.87-10.41,0ZM11.51,11.51c-2.3,2.3-6.04,2.3-8.34,0-2.3-2.3-2.3-6.04,0-8.34s6.04-2.3,8.34,0,2.3,6.04,0,8.34Z"/>
  </g>
</svg>